<?xml version="1.0" encoding="UTF-8"?>
<svg id="Layer_1" data-name="Layer 1" xmlns="http://www.w3.org/2000/svg" viewBox="0 0 93.36 32">
  <defs>
    <style>
      .cls-1, .cls-2 {
        fill: #fff;
        stroke-width: 0px;
      }

      .cls-2 {
        fill-rule: evenodd;
      }
    </style>
  </defs>
  <g>
    <path class="cls-1" d="m43.7,9.26v6.76c0,1.49,0,1.54.05,1.9.18,1.54.77,1.84,3.51,1.84s3.49-.08,3.94-.47c.36-.31.54-.9.56-1.95q.02-.31.02-1.82v-6.27h3.65v7.17c.04,3.38-.22,4.38-1.28,5.47-.86.76-1.94,1.08-3.51,1.11-.56.02-.88.02-1.6.02l-1.37.02c-3.38-.02-4.05-.06-4.93-.33-2.18-.76-2.75-2.05-2.7-6.1v-7.35h3.66Z"/>
    <path class="cls-1" d="m70.84,9.26v3.09h-9.71v2.35h9.15v2.7h-9.15v2.42h9.83v3.09h-13.43v-13.66h13.31Z"/>
    <path class="cls-1" d="m87.75,17.78c-.02,1.99-.07,2.66-.32,3.28-.47,1.17-1.44,1.72-3.31,1.86-.74.08-2.18.1-4.57.1-3.46,0-4.57-.18-5.55-.9-1.19-.86-1.53-2.29-1.53-6.35,0-3.6.36-4.89,1.62-5.71,1.08-.72,2.23-.9,5.6-.9,4.48,0,5.46.1,6.48.68.97.55,1.42,1.76,1.42,3.77v.45h-3.49c-.07-1.49-.34-1.62-3.51-1.62-2.99,0-3.53.08-3.98.53-.43.45-.52,1-.52,3.22,0,3.28.27,3.52,3.78,3.52,2.72,0,3.12-.02,3.62-.27.52-.25.72-.68.72-1.66h3.55Z"/>
    <path class="cls-1" d="m89.7,9.26h3.66v13.66h-3.66v-13.66Z"/>
  </g>
  <path class="cls-2" d="m16,0C7.16,0,0,7.16,0,16s7.16,16,16,16,16-7.16,16-16S24.84,0,16,0Zm.51,19.53h-3.84c-.85,0-.87,0-1.08.03-.87.1-1.05.44-1.05,1.99s.05,1.98.27,2.24c.17.21.51.31,1.11.32q.17,0,1.04,0h3.56v2.08h-4.08c-1.92.02-2.49-.12-3.11-.73-.43-.49-.62-1.1-.63-1.99-.01-.32-.01-.5-.01-.91v-.78c0-1.92.02-2.3.17-2.8.43-1.24,1.16-1.56,3.47-1.53h4.18v2.08Zm.09-7.7c.02,1.92-.12,2.49-.73,3.11-.49.43-1.1.62-1.99.63-.32.01-.5.01-.91.01h-.78c-1.92,0-2.3-.02-2.8-.17-1.24-.43-1.56-1.16-1.53-3.47v-4.18h2.08v3.84c0,.85,0,.87.03,1.08.1.87.44,1.05,1.99,1.05s1.98-.05,2.24-.27c.2-.17.31-.51.32-1.11q.01-.17.01-1.04v-3.56h2.08v4.08Zm3.19,14.35h-2.08v-8.75h2.08v8.75Zm5.55-10.66h-7.63v-7.77h7.55v1.76h-5.51v1.34h5.19v1.54h-5.19v1.37h5.58v1.76Z"/>
</svg>